<svg xmlns="http://www.w3.org/2000/svg" viewBox="0 0 1090.00 754.98">
  <style>
    .key-bg { fill: #f5f5f5; stroke: #d4d4d4; stroke-width: 1; }
    .key-index { fill: #171717; font-family: ui-monospace, SFMono-Regular, "SF Mono", Menlo, Consolas, "Liberation Mono", monospace; font-weight: 700; text-anchor: middle; dominant-baseline: central; }
    .key-part { font-family: system-ui, -apple-system, BlinkMacSystemFont, "Segoe UI", Roboto, sans-serif; text-anchor: middle; dominant-baseline: central; }
    @media (prefers-color-scheme: dark) {
      .key-bg { fill: #2a2a2a; stroke: #404040; }
      .key-index { fill: #e5e5e5; }
    }
    .key-bg.part-0 { stroke: #f59e0b; }
    .key-part.part-0 { fill: #f59e0b; }
    .key-bg.part-1 { stroke: #14b8a6; }
    .key-part.part-1 { fill: #14b8a6; }
  </style>
  <g>
    <path class="key-bg part-0" d="M 26.00,92.00 L 84.00,92.00 Q 88.00,92.00 88.00,96.00 L 88.00,154.00 Q 88.00,158.00 84.00,158.00 L 26.00,158.00 Q 22.00,158.00 22.00,154.00 L 22.00,96.00 Q 22.00,92.00 26.00,92.00 Z" />
    <path class="key-bg part-0" d="M 96.00,22.00 L 154.00,22.00 Q 158.00,22.00 158.00,26.00 L 158.00,84.00 Q 158.00,88.00 154.00,88.00 L 96.00,88.00 Q 92.00,88.00 92.00,84.00 L 92.00,26.00 Q 92.00,22.00 96.00,22.00 Z" />
    <path class="key-bg part-0" d="M 166.00,39.50 L 224.00,39.50 Q 228.00,39.50 228.00,43.50 L 228.00,101.50 Q 228.00,105.50 224.00,105.50 L 166.00,105.50 Q 162.00,105.50 162.00,101.50 L 162.00,43.50 Q 162.00,39.50 166.00,39.50 Z" />
    <path class="key-bg part-0" d="M 236.00,22.00 L 294.00,22.00 Q 298.00,22.00 298.00,26.00 L 298.00,84.00 Q 298.00,88.00 294.00,88.00 L 236.00,88.00 Q 232.00,88.00 232.00,84.00 L 232.00,26.00 Q 232.00,22.00 236.00,22.00 Z" />
    <path class="key-bg part-0" d="M 306.00,57.00 L 364.00,57.00 Q 368.00,57.00 368.00,61.00 L 368.00,119.00 Q 368.00,123.00 364.00,123.00 L 306.00,123.00 Q 302.00,123.00 302.00,119.00 L 302.00,61.00 Q 302.00,57.00 306.00,57.00 Z" />
    <path class="key-bg part-0" d="M 376.00,74.50 L 434.00,74.50 Q 438.00,74.50 438.00,78.50 L 438.00,136.50 Q 438.00,140.50 434.00,140.50 L 376.00,140.50 Q 372.00,140.50 372.00,136.50 L 372.00,78.50 Q 372.00,74.50 376.00,74.50 Z" />
    <path class="key-bg part-1" d="M 656.00,74.50 L 714.00,74.50 Q 718.00,74.50 718.00,78.50 L 718.00,136.50 Q 718.00,140.50 714.00,140.50 L 656.00,140.50 Q 652.00,140.50 652.00,136.50 L 652.00,78.50 Q 652.00,74.50 656.00,74.50 Z" />
    <path class="key-bg part-1" d="M 726.00,57.00 L 784.00,57.00 Q 788.00,57.00 788.00,61.00 L 788.00,119.00 Q 788.00,123.00 784.00,123.00 L 726.00,123.00 Q 722.00,123.00 722.00,119.00 L 722.00,61.00 Q 722.00,57.00 726.00,57.00 Z" />
    <path class="key-bg part-1" d="M 796.00,22.00 L 854.00,22.00 Q 858.00,22.00 858.00,26.00 L 858.00,84.00 Q 858.00,88.00 854.00,88.00 L 796.00,88.00 Q 792.00,88.00 792.00,84.00 L 792.00,26.00 Q 792.00,22.00 796.00,22.00 Z" />
    <path class="key-bg part-1" d="M 866.00,39.50 L 924.00,39.50 Q 928.00,39.50 928.00,43.50 L 928.00,101.50 Q 928.00,105.50 924.00,105.50 L 866.00,105.50 Q 862.00,105.50 862.00,101.50 L 862.00,43.50 Q 862.00,39.50 866.00,39.50 Z" />
    <path class="key-bg part-1" d="M 936.00,22.00 L 994.00,22.00 Q 998.00,22.00 998.00,26.00 L 998.00,84.00 Q 998.00,88.00 994.00,88.00 L 936.00,88.00 Q 932.00,88.00 932.00,84.00 L 932.00,26.00 Q 932.00,22.00 936.00,22.00 Z" />
    <path class="key-bg part-1" d="M 1006.00,92.00 L 1064.00,92.00 Q 1068.00,92.00 1068.00,96.00 L 1068.00,154.00 Q 1068.00,158.00 1064.00,158.00 L 1006.00,158.00 Q 1002.00,158.00 1002.00,154.00 L 1002.00,96.00 Q 1002.00,92.00 1006.00,92.00 Z" />
    <path class="key-bg part-0" d="M 96.00,92.00 L 154.00,92.00 Q 158.00,92.00 158.00,96.00 L 158.00,154.00 Q 158.00,158.00 154.00,158.00 L 96.00,158.00 Q 92.00,158.00 92.00,154.00 L 92.00,96.00 Q 92.00,92.00 96.00,92.00 Z" />
    <path class="key-bg part-0" d="M 166.00,109.50 L 224.00,109.50 Q 228.00,109.50 228.00,113.50 L 228.00,171.50 Q 228.00,175.50 224.00,175.50 L 166.00,175.50 Q 162.00,175.50 162.00,171.50 L 162.00,113.50 Q 162.00,109.50 166.00,109.50 Z" />
    <path class="key-bg part-0" d="M 236.00,92.00 L 294.00,92.00 Q 298.00,92.00 298.00,96.00 L 298.00,154.00 Q 298.00,158.00 294.00,158.00 L 236.00,158.00 Q 232.00,158.00 232.00,154.00 L 232.00,96.00 Q 232.00,92.00 236.00,92.00 Z" />
    <path class="key-bg part-0" d="M 306.00,127.00 L 364.00,127.00 Q 368.00,127.00 368.00,131.00 L 368.00,189.00 Q 368.00,193.00 364.00,193.00 L 306.00,193.00 Q 302.00,193.00 302.00,189.00 L 302.00,131.00 Q 302.00,127.00 306.00,127.00 Z" />
    <path class="key-bg part-0" d="M 376.00,144.50 L 434.00,144.50 Q 438.00,144.50 438.00,148.50 L 438.00,206.50 Q 438.00,210.50 434.00,210.50 L 376.00,210.50 Q 372.00,210.50 372.00,206.50 L 372.00,148.50 Q 372.00,144.50 376.00,144.50 Z" />
    <path class="key-bg part-0" d="M 446.00,74.50 L 504.00,74.50 Q 508.00,74.50 508.00,78.50 L 508.00,136.50 Q 508.00,140.50 504.00,140.50 L 446.00,140.50 Q 442.00,140.50 442.00,136.50 L 442.00,78.50 Q 442.00,74.50 446.00,74.50 Z" />
    <path class="key-bg part-1" d="M 586.00,74.50 L 644.00,74.50 Q 648.00,74.50 648.00,78.50 L 648.00,136.50 Q 648.00,140.50 644.00,140.50 L 586.00,140.50 Q 582.00,140.50 582.00,136.50 L 582.00,78.50 Q 582.00,74.50 586.00,74.50 Z" />
    <path class="key-bg part-1" d="M 656.00,144.50 L 714.00,144.50 Q 718.00,144.50 718.00,148.50 L 718.00,206.50 Q 718.00,210.50 714.00,210.50 L 656.00,210.50 Q 652.00,210.50 652.00,206.50 L 652.00,148.50 Q 652.00,144.50 656.00,144.50 Z" />
    <path class="key-bg part-1" d="M 726.00,127.00 L 784.00,127.00 Q 788.00,127.00 788.00,131.00 L 788.00,189.00 Q 788.00,193.00 784.00,193.00 L 726.00,193.00 Q 722.00,193.00 722.00,189.00 L 722.00,131.00 Q 722.00,127.00 726.00,127.00 Z" />
    <path class="key-bg part-1" d="M 796.00,92.00 L 854.00,92.00 Q 858.00,92.00 858.00,96.00 L 858.00,154.00 Q 858.00,158.00 854.00,158.00 L 796.00,158.00 Q 792.00,158.00 792.00,154.00 L 792.00,96.00 Q 792.00,92.00 796.00,92.00 Z" />
    <path class="key-bg part-1" d="M 866.00,109.50 L 924.00,109.50 Q 928.00,109.50 928.00,113.50 L 928.00,171.50 Q 928.00,175.50 924.00,175.50 L 866.00,175.50 Q 862.00,175.50 862.00,171.50 L 862.00,113.50 Q 862.00,109.50 866.00,109.50 Z" />
    <path class="key-bg part-1" d="M 936.00,92.00 L 994.00,92.00 Q 998.00,92.00 998.00,96.00 L 998.00,154.00 Q 998.00,158.00 994.00,158.00 L 936.00,158.00 Q 932.00,158.00 932.00,154.00 L 932.00,96.00 Q 932.00,92.00 936.00,92.00 Z" />
    <path class="key-bg part-0" d="M 96.00,162.00 L 154.00,162.00 Q 158.00,162.00 158.00,166.00 L 158.00,224.00 Q 158.00,228.00 154.00,228.00 L 96.00,228.00 Q 92.00,228.00 92.00,224.00 L 92.00,166.00 Q 92.00,162.00 96.00,162.00 Z" />
    <path class="key-bg part-0" d="M 166.00,179.50 L 224.00,179.50 Q 228.00,179.50 228.00,183.50 L 228.00,241.50 Q 228.00,245.50 224.00,245.50 L 166.00,245.50 Q 162.00,245.50 162.00,241.50 L 162.00,183.50 Q 162.00,179.50 166.00,179.50 Z" />
    <path class="key-bg part-0" d="M 236.00,162.00 L 294.00,162.00 Q 298.00,162.00 298.00,166.00 L 298.00,224.00 Q 298.00,228.00 294.00,228.00 L 236.00,228.00 Q 232.00,228.00 232.00,224.00 L 232.00,166.00 Q 232.00,162.00 236.00,162.00 Z" />
    <path class="key-bg part-0" d="M 306.00,197.00 L 364.00,197.00 Q 368.00,197.00 368.00,201.00 L 368.00,259.00 Q 368.00,263.00 364.00,263.00 L 306.00,263.00 Q 302.00,263.00 302.00,259.00 L 302.00,201.00 Q 302.00,197.00 306.00,197.00 Z" />
    <path class="key-bg part-0" d="M 376.00,214.50 L 434.00,214.50 Q 438.00,214.50 438.00,218.50 L 438.00,276.50 Q 438.00,280.50 434.00,280.50 L 376.00,280.50 Q 372.00,280.50 372.00,276.50 L 372.00,218.50 Q 372.00,214.50 376.00,214.50 Z" />
    <path class="key-bg part-0" d="M 446.00,144.50 L 504.00,144.50 Q 508.00,144.50 508.00,148.50 L 508.00,206.50 Q 508.00,210.50 504.00,210.50 L 446.00,210.50 Q 442.00,210.50 442.00,206.50 L 442.00,148.50 Q 442.00,144.50 446.00,144.50 Z" />
    <path class="key-bg part-1" d="M 586.00,144.50 L 644.00,144.50 Q 648.00,144.50 648.00,148.50 L 648.00,206.50 Q 648.00,210.50 644.00,210.50 L 586.00,210.50 Q 582.00,210.50 582.00,206.50 L 582.00,148.50 Q 582.00,144.50 586.00,144.50 Z" />
    <path class="key-bg part-1" d="M 656.00,214.50 L 714.00,214.50 Q 718.00,214.50 718.00,218.50 L 718.00,276.50 Q 718.00,280.50 714.00,280.50 L 656.00,280.50 Q 652.00,280.50 652.00,276.50 L 652.00,218.50 Q 652.00,214.50 656.00,214.50 Z" />
    <path class="key-bg part-1" d="M 726.00,197.00 L 784.00,197.00 Q 788.00,197.00 788.00,201.00 L 788.00,259.00 Q 788.00,263.00 784.00,263.00 L 726.00,263.00 Q 722.00,263.00 722.00,259.00 L 722.00,201.00 Q 722.00,197.00 726.00,197.00 Z" />
    <path class="key-bg part-1" d="M 796.00,162.00 L 854.00,162.00 Q 858.00,162.00 858.00,166.00 L 858.00,224.00 Q 858.00,228.00 854.00,228.00 L 796.00,228.00 Q 792.00,228.00 792.00,224.00 L 792.00,166.00 Q 792.00,162.00 796.00,162.00 Z" />
    <path class="key-bg part-1" d="M 866.00,179.50 L 924.00,179.50 Q 928.00,179.50 928.00,183.50 L 928.00,241.50 Q 928.00,245.50 924.00,245.50 L 866.00,245.50 Q 862.00,245.50 862.00,241.50 L 862.00,183.50 Q 862.00,179.50 866.00,179.50 Z" />
    <path class="key-bg part-1" d="M 936.00,162.00 L 994.00,162.00 Q 998.00,162.00 998.00,166.00 L 998.00,224.00 Q 998.00,228.00 994.00,228.00 L 936.00,228.00 Q 932.00,228.00 932.00,224.00 L 932.00,166.00 Q 932.00,162.00 936.00,162.00 Z" />
    <path class="key-bg part-0" d="M 96.00,232.00 L 154.00,232.00 Q 158.00,232.00 158.00,236.00 L 158.00,294.00 Q 158.00,298.00 154.00,298.00 L 96.00,298.00 Q 92.00,298.00 92.00,294.00 L 92.00,236.00 Q 92.00,232.00 96.00,232.00 Z" />
    <path class="key-bg part-0" d="M 166.00,249.50 L 224.00,249.50 Q 228.00,249.50 228.00,253.50 L 228.00,311.50 Q 228.00,315.50 224.00,315.50 L 166.00,315.50 Q 162.00,315.50 162.00,311.50 L 162.00,253.50 Q 162.00,249.50 166.00,249.50 Z" />
    <path class="key-bg part-0" d="M 236.00,232.00 L 294.00,232.00 Q 298.00,232.00 298.00,236.00 L 298.00,294.00 Q 298.00,298.00 294.00,298.00 L 236.00,298.00 Q 232.00,298.00 232.00,294.00 L 232.00,236.00 Q 232.00,232.00 236.00,232.00 Z" />
    <path class="key-bg part-0" d="M 306.00,267.00 L 364.00,267.00 Q 368.00,267.00 368.00,271.00 L 368.00,329.00 Q 368.00,333.00 364.00,333.00 L 306.00,333.00 Q 302.00,333.00 302.00,329.00 L 302.00,271.00 Q 302.00,267.00 306.00,267.00 Z" />
    <path class="key-bg part-0" d="M 376.00,284.50 L 434.00,284.50 Q 438.00,284.50 438.00,288.50 L 438.00,346.50 Q 438.00,350.50 434.00,350.50 L 376.00,350.50 Q 372.00,350.50 372.00,346.50 L 372.00,288.50 Q 372.00,284.50 376.00,284.50 Z" />
    <path class="key-bg part-0" d="M 446.00,214.50 L 504.00,214.50 Q 508.00,214.50 508.00,218.50 L 508.00,276.50 Q 508.00,280.50 504.00,280.50 L 446.00,280.50 Q 442.00,280.50 442.00,276.50 L 442.00,218.50 Q 442.00,214.50 446.00,214.50 Z" />
    <path class="key-bg part-1" d="M 586.00,214.50 L 644.00,214.50 Q 648.00,214.50 648.00,218.50 L 648.00,276.50 Q 648.00,280.50 644.00,280.50 L 586.00,280.50 Q 582.00,280.50 582.00,276.50 L 582.00,218.50 Q 582.00,214.50 586.00,214.50 Z" />
    <path class="key-bg part-1" d="M 656.00,284.50 L 714.00,284.50 Q 718.00,284.50 718.00,288.50 L 718.00,346.50 Q 718.00,350.50 714.00,350.50 L 656.00,350.50 Q 652.00,350.50 652.00,346.50 L 652.00,288.50 Q 652.00,284.50 656.00,284.50 Z" />
    <path class="key-bg part-1" d="M 726.00,267.00 L 784.00,267.00 Q 788.00,267.00 788.00,271.00 L 788.00,329.00 Q 788.00,333.00 784.00,333.00 L 726.00,333.00 Q 722.00,333.00 722.00,329.00 L 722.00,271.00 Q 722.00,267.00 726.00,267.00 Z" />
    <path class="key-bg part-1" d="M 796.00,232.00 L 854.00,232.00 Q 858.00,232.00 858.00,236.00 L 858.00,294.00 Q 858.00,298.00 854.00,298.00 L 796.00,298.00 Q 792.00,298.00 792.00,294.00 L 792.00,236.00 Q 792.00,232.00 796.00,232.00 Z" />
    <path class="key-bg part-1" d="M 866.00,249.50 L 924.00,249.50 Q 928.00,249.50 928.00,253.50 L 928.00,311.50 Q 928.00,315.50 924.00,315.50 L 866.00,315.50 Q 862.00,315.50 862.00,311.50 L 862.00,253.50 Q 862.00,249.50 866.00,249.50 Z" />
    <path class="key-bg part-1" d="M 936.00,232.00 L 994.00,232.00 Q 998.00,232.00 998.00,236.00 L 998.00,294.00 Q 998.00,298.00 994.00,298.00 L 936.00,298.00 Q 932.00,298.00 932.00,294.00 L 932.00,236.00 Q 932.00,232.00 936.00,232.00 Z" />
    <path class="key-bg part-0" d="M 96.00,302.00 L 154.00,302.00 Q 158.00,302.00 158.00,306.00 L 158.00,364.00 Q 158.00,368.00 154.00,368.00 L 96.00,368.00 Q 92.00,368.00 92.00,364.00 L 92.00,306.00 Q 92.00,302.00 96.00,302.00 Z" />
    <path class="key-bg part-0" d="M 353.68,393.98 L 398.11,431.26 Q 401.17,433.83 398.60,436.89 L 361.32,481.33 Q 358.75,484.39 355.68,481.82 L 311.25,444.54 Q 308.19,441.97 310.76,438.90 L 348.04,394.47 Q 350.61,391.41 353.68,393.98 Z" />
    <path class="key-bg part-0" d="M 362.31,492.60 L 406.74,529.88 Q 409.80,532.45 407.23,535.51 L 369.95,579.94 Q 367.38,583.01 364.31,580.44 L 319.88,543.16 Q 316.82,540.58 319.39,537.52 L 356.67,493.09 Q 359.24,490.02 362.31,492.60 Z" />
    <path class="key-bg part-0" d="M 452.30,385.35 L 496.73,422.63 Q 499.79,425.20 497.22,428.27 L 459.94,472.70 Q 457.37,475.76 454.30,473.19 L 409.87,435.91 Q 406.81,433.34 409.38,430.27 L 446.66,385.84 Q 449.23,382.78 452.30,385.35 Z" />
    <path class="key-bg part-0" d="M 460.92,483.97 L 505.35,521.25 Q 508.42,523.82 505.85,526.89 L 468.57,571.32 Q 465.99,574.38 462.93,571.81 L 418.50,534.53 Q 415.44,531.96 418.01,528.89 L 455.29,484.46 Q 457.86,481.40 460.92,483.97 Z" />
    <path class="key-bg part-0" d="M 407.30,438.97 L 451.73,476.25 Q 454.80,478.83 452.22,481.89 L 414.94,526.32 Q 412.37,529.38 409.31,526.81 L 364.88,489.53 Q 361.81,486.96 364.38,483.90 L 401.67,439.47 Q 404.24,436.40 407.30,438.97 Z" />
    <path class="key-bg part-1" d="M 643.64,481.64 L 688.07,444.35 Q 691.13,441.78 693.70,444.85 L 730.98,489.28 Q 733.56,492.34 730.49,494.91 L 686.06,532.19 Q 683.00,534.77 680.43,531.70 L 643.14,487.27 Q 640.57,484.21 643.64,481.64 Z" />
    <path class="key-bg part-1" d="M 590.01,526.63 L 634.44,489.35 Q 637.51,486.78 640.08,489.84 L 677.36,534.27 Q 679.93,537.34 676.87,539.91 L 632.44,577.19 Q 629.37,579.76 626.80,576.70 L 589.52,532.27 Q 586.95,529.20 590.01,526.63 Z" />
    <path class="key-bg part-1" d="M 598.64,428.01 L 643.07,390.73 Q 646.14,388.16 648.71,391.22 L 685.99,435.65 Q 688.56,438.72 685.50,441.29 L 641.07,478.57 Q 638.00,481.14 635.43,478.08 L 598.15,433.65 Q 595.58,430.58 598.64,428.01 Z" />
    <path class="key-bg part-1" d="M 688.63,535.26 L 733.06,497.98 Q 736.13,495.41 738.70,498.47 L 775.98,542.90 Q 778.55,545.97 775.49,548.54 L 731.06,585.82 Q 727.99,588.39 725.42,585.32 L 688.14,540.89 Q 685.57,537.83 688.63,535.26 Z" />
    <path class="key-bg part-1" d="M 697.26,436.64 L 741.69,399.36 Q 744.76,396.79 747.33,399.85 L 784.61,444.28 Q 787.18,447.35 784.11,449.92 L 739.68,487.20 Q 736.62,489.77 734.05,486.71 L 696.77,442.28 Q 694.20,439.21 697.26,436.64 Z" />
    <path class="key-bg part-1" d="M 936.00,302.00 L 994.00,302.00 Q 998.00,302.00 998.00,306.00 L 998.00,364.00 Q 998.00,368.00 994.00,368.00 L 936.00,368.00 Q 932.00,368.00 932.00,364.00 L 932.00,306.00 Q 932.00,302.00 936.00,302.00 Z" />
    <path class="key-bg part-0" d="M 26.00,249.50 L 84.00,249.50 Q 88.00,249.50 88.00,253.50 L 88.00,311.50 Q 88.00,315.50 84.00,315.50 L 26.00,315.50 Q 22.00,315.50 22.00,311.50 L 22.00,253.50 Q 22.00,249.50 26.00,249.50 Z" />
    <path class="key-bg part-0" d="M 373.31,585.39 L 417.74,622.67 Q 420.81,625.24 418.23,628.31 L 380.95,672.74 Q 378.38,675.80 375.32,673.23 L 330.89,635.95 Q 327.82,633.38 330.39,630.31 L 367.68,585.88 Q 370.25,582.82 373.31,585.39 Z" />
    <path class="key-bg part-0" d="M 426.93,630.38 L 471.36,667.67 Q 474.43,670.24 471.86,673.30 L 434.58,717.73 Q 432.00,720.80 428.94,718.22 L 384.51,680.94 Q 381.45,678.37 384.02,675.31 L 421.30,630.88 Q 423.87,627.81 426.93,630.38 Z" />
    <path class="key-bg part-0" d="M 471.93,576.76 L 516.36,614.04 Q 519.42,616.61 516.85,619.68 L 479.57,664.11 Q 477.00,667.17 473.94,664.60 L 429.50,627.32 Q 426.44,624.75 429.01,621.68 L 466.29,577.25 Q 468.86,574.19 471.93,576.76 Z" />
    <path class="key-bg part-1" d="M 577.78,625.40 L 622.21,588.12 Q 625.27,585.55 627.84,588.62 L 665.12,633.05 Q 667.69,636.11 664.63,638.68 L 620.20,675.96 Q 617.14,678.53 614.56,675.47 L 577.28,631.04 Q 574.71,627.98 577.78,625.40 Z" />
    <path class="key-bg part-1" d="M 622.77,679.03 L 667.20,641.75 Q 670.27,639.18 672.84,642.24 L 710.12,686.67 Q 712.69,689.73 709.63,692.31 L 665.20,729.59 Q 662.13,732.16 659.56,729.09 L 622.28,684.66 Q 619.71,681.60 622.77,679.03 Z" />
    <path class="key-bg part-1" d="M 676.39,634.03 L 720.82,596.75 Q 723.89,594.18 726.46,597.24 L 763.74,641.67 Q 766.31,644.74 763.25,647.31 L 718.82,684.59 Q 715.75,687.16 713.18,684.10 L 675.90,639.67 Q 673.33,636.60 676.39,634.03 Z" />
    <path class="key-bg part-1" d="M 1006.00,249.50 L 1064.00,249.50 Q 1068.00,249.50 1068.00,253.50 L 1068.00,311.50 Q 1068.00,315.50 1064.00,315.50 L 1006.00,315.50 Q 1002.00,315.50 1002.00,311.50 L 1002.00,253.50 Q 1002.00,249.50 1006.00,249.50 Z" />
  </g>
  <g>
    <text class="key-index" x="55.00" y="113.36" font-size="26">0</text>
    <text class="key-part part-0" x="55.00" y="140.64" font-size="18">left</text>
    <text class="key-index" x="125.00" y="43.36" font-size="26">1</text>
    <text class="key-part part-0" x="125.00" y="70.64" font-size="18">left</text>
    <text class="key-index" x="195.00" y="60.86" font-size="26">2</text>
    <text class="key-part part-0" x="195.00" y="88.14" font-size="18">left</text>
    <text class="key-index" x="265.00" y="43.36" font-size="26">3</text>
    <text class="key-part part-0" x="265.00" y="70.64" font-size="18">left</text>
    <text class="key-index" x="335.00" y="78.36" font-size="26">4</text>
    <text class="key-part part-0" x="335.00" y="105.64" font-size="18">left</text>
    <text class="key-index" x="405.00" y="95.86" font-size="26">5</text>
    <text class="key-part part-0" x="405.00" y="123.14" font-size="18">left</text>
    <text class="key-index" x="685.00" y="95.86" font-size="26">6</text>
    <text class="key-part part-1" x="685.00" y="123.14" font-size="18">right</text>
    <text class="key-index" x="755.00" y="78.36" font-size="26">7</text>
    <text class="key-part part-1" x="755.00" y="105.64" font-size="18">right</text>
    <text class="key-index" x="825.00" y="43.36" font-size="26">8</text>
    <text class="key-part part-1" x="825.00" y="70.64" font-size="18">right</text>
    <text class="key-index" x="895.00" y="60.86" font-size="26">9</text>
    <text class="key-part part-1" x="895.00" y="88.14" font-size="18">right</text>
    <text class="key-index" x="965.00" y="43.36" font-size="26">10</text>
    <text class="key-part part-1" x="965.00" y="70.64" font-size="18">right</text>
    <text class="key-index" x="1035.00" y="113.36" font-size="26">11</text>
    <text class="key-part part-1" x="1035.00" y="140.64" font-size="18">right</text>
    <text class="key-index" x="125.00" y="113.36" font-size="26">12</text>
    <text class="key-part part-0" x="125.00" y="140.64" font-size="18">left</text>
    <text class="key-index" x="195.00" y="130.86" font-size="26">13</text>
    <text class="key-part part-0" x="195.00" y="158.14" font-size="18">left</text>
    <text class="key-index" x="265.00" y="113.36" font-size="26">14</text>
    <text class="key-part part-0" x="265.00" y="140.64" font-size="18">left</text>
    <text class="key-index" x="335.00" y="148.36" font-size="26">15</text>
    <text class="key-part part-0" x="335.00" y="175.64" font-size="18">left</text>
    <text class="key-index" x="405.00" y="165.86" font-size="26">16</text>
    <text class="key-part part-0" x="405.00" y="193.14" font-size="18">left</text>
    <text class="key-index" x="475.00" y="95.86" font-size="26">17</text>
    <text class="key-part part-0" x="475.00" y="123.14" font-size="18">left</text>
    <text class="key-index" x="615.00" y="95.86" font-size="26">18</text>
    <text class="key-part part-1" x="615.00" y="123.14" font-size="18">right</text>
    <text class="key-index" x="685.00" y="165.86" font-size="26">19</text>
    <text class="key-part part-1" x="685.00" y="193.14" font-size="18">right</text>
    <text class="key-index" x="755.00" y="148.36" font-size="26">20</text>
    <text class="key-part part-1" x="755.00" y="175.64" font-size="18">right</text>
    <text class="key-index" x="825.00" y="113.36" font-size="26">21</text>
    <text class="key-part part-1" x="825.00" y="140.64" font-size="18">right</text>
    <text class="key-index" x="895.00" y="130.86" font-size="26">22</text>
    <text class="key-part part-1" x="895.00" y="158.14" font-size="18">right</text>
    <text class="key-index" x="965.00" y="113.36" font-size="26">23</text>
    <text class="key-part part-1" x="965.00" y="140.64" font-size="18">right</text>
    <text class="key-index" x="125.00" y="183.36" font-size="26">24</text>
    <text class="key-part part-0" x="125.00" y="210.64" font-size="18">left</text>
    <text class="key-index" x="195.00" y="200.86" font-size="26">25</text>
    <text class="key-part part-0" x="195.00" y="228.14" font-size="18">left</text>
    <text class="key-index" x="265.00" y="183.36" font-size="26">26</text>
    <text class="key-part part-0" x="265.00" y="210.64" font-size="18">left</text>
    <text class="key-index" x="335.00" y="218.36" font-size="26">27</text>
    <text class="key-part part-0" x="335.00" y="245.64" font-size="18">left</text>
    <text class="key-index" x="405.00" y="235.86" font-size="26">28</text>
    <text class="key-part part-0" x="405.00" y="263.14" font-size="18">left</text>
    <text class="key-index" x="475.00" y="165.86" font-size="26">29</text>
    <text class="key-part part-0" x="475.00" y="193.14" font-size="18">left</text>
    <text class="key-index" x="615.00" y="165.86" font-size="26">30</text>
    <text class="key-part part-1" x="615.00" y="193.14" font-size="18">right</text>
    <text class="key-index" x="685.00" y="235.86" font-size="26">31</text>
    <text class="key-part part-1" x="685.00" y="263.14" font-size="18">right</text>
    <text class="key-index" x="755.00" y="218.36" font-size="26">32</text>
    <text class="key-part part-1" x="755.00" y="245.64" font-size="18">right</text>
    <text class="key-index" x="825.00" y="183.36" font-size="26">33</text>
    <text class="key-part part-1" x="825.00" y="210.64" font-size="18">right</text>
    <text class="key-index" x="895.00" y="200.86" font-size="26">34</text>
    <text class="key-part part-1" x="895.00" y="228.14" font-size="18">right</text>
    <text class="key-index" x="965.00" y="183.36" font-size="26">35</text>
    <text class="key-part part-1" x="965.00" y="210.64" font-size="18">right</text>
    <text class="key-index" x="125.00" y="253.36" font-size="26">36</text>
    <text class="key-part part-0" x="125.00" y="280.64" font-size="18">left</text>
    <text class="key-index" x="195.00" y="270.86" font-size="26">37</text>
    <text class="key-part part-0" x="195.00" y="298.14" font-size="18">left</text>
    <text class="key-index" x="265.00" y="253.36" font-size="26">38</text>
    <text class="key-part part-0" x="265.00" y="280.64" font-size="18">left</text>
    <text class="key-index" x="335.00" y="288.36" font-size="26">39</text>
    <text class="key-part part-0" x="335.00" y="315.64" font-size="18">left</text>
    <text class="key-index" x="405.00" y="305.86" font-size="26">40</text>
    <text class="key-part part-0" x="405.00" y="333.14" font-size="18">left</text>
    <text class="key-index" x="475.00" y="235.86" font-size="26">41</text>
    <text class="key-part part-0" x="475.00" y="263.14" font-size="18">left</text>
    <text class="key-index" x="615.00" y="235.86" font-size="26">42</text>
    <text class="key-part part-1" x="615.00" y="263.14" font-size="18">right</text>
    <text class="key-index" x="685.00" y="305.86" font-size="26">43</text>
    <text class="key-part part-1" x="685.00" y="333.14" font-size="18">right</text>
    <text class="key-index" x="755.00" y="288.36" font-size="26">44</text>
    <text class="key-part part-1" x="755.00" y="315.64" font-size="18">right</text>
    <text class="key-index" x="825.00" y="253.36" font-size="26">45</text>
    <text class="key-part part-1" x="825.00" y="280.64" font-size="18">right</text>
    <text class="key-index" x="895.00" y="270.86" font-size="26">46</text>
    <text class="key-part part-1" x="895.00" y="298.14" font-size="18">right</text>
    <text class="key-index" x="965.00" y="253.36" font-size="26">47</text>
    <text class="key-part part-1" x="965.00" y="280.64" font-size="18">right</text>
    <text class="key-index" x="125.00" y="323.36" font-size="26">48</text>
    <text class="key-part part-0" x="125.00" y="350.64" font-size="18">left</text>
    <text class="key-index" x="354.68" y="426.26" font-size="26" transform="rotate(40 354.68 437.90)">49</text>
    <text class="key-part part-0" x="354.68" y="453.54" font-size="18" transform="rotate(40 354.68 437.90)">left</text>
    <text class="key-index" x="363.31" y="524.88" font-size="26" transform="rotate(40 363.31 536.52)">50</text>
    <text class="key-part part-0" x="363.31" y="552.16" font-size="18" transform="rotate(40 363.31 536.52)">left</text>
    <text class="key-index" x="453.30" y="417.63" font-size="26" transform="rotate(40 453.30 429.27)">51</text>
    <text class="key-part part-0" x="453.30" y="444.91" font-size="18" transform="rotate(40 453.30 429.27)">left</text>
    <text class="key-index" x="461.93" y="516.25" font-size="26" transform="rotate(40 461.93 527.89)">52</text>
    <text class="key-part part-0" x="461.93" y="543.53" font-size="18" transform="rotate(40 461.93 527.89)">left</text>
    <text class="key-index" x="408.30" y="471.25" font-size="26" transform="rotate(40 408.30 482.89)">53</text>
    <text class="key-part part-0" x="408.30" y="498.53" font-size="18" transform="rotate(40 408.30 482.89)">left</text>
    <text class="key-index" x="687.06" y="476.63" font-size="26" transform="rotate(-40 687.06 488.27)">54</text>
    <text class="key-part part-1" x="687.06" y="503.91" font-size="18" transform="rotate(-40 687.06 488.27)">right</text>
    <text class="key-index" x="633.44" y="521.63" font-size="26" transform="rotate(-40 633.44 533.27)">55</text>
    <text class="key-part part-1" x="633.44" y="548.91" font-size="18" transform="rotate(-40 633.44 533.27)">right</text>
    <text class="key-index" x="642.07" y="423.01" font-size="26" transform="rotate(-40 642.07 434.65)">56</text>
    <text class="key-part part-1" x="642.07" y="450.29" font-size="18" transform="rotate(-40 642.07 434.65)">right</text>
    <text class="key-index" x="732.06" y="530.26" font-size="26" transform="rotate(-40 732.06 541.90)">57</text>
    <text class="key-part part-1" x="732.06" y="557.54" font-size="18" transform="rotate(-40 732.06 541.90)">right</text>
    <text class="key-index" x="740.69" y="431.64" font-size="26" transform="rotate(-40 740.69 443.28)">58</text>
    <text class="key-part part-1" x="740.69" y="458.92" font-size="18" transform="rotate(-40 740.69 443.28)">right</text>
    <text class="key-index" x="965.00" y="323.36" font-size="26">59</text>
    <text class="key-part part-1" x="965.00" y="350.64" font-size="18">right</text>
    <text class="key-index" x="55.00" y="270.86" font-size="26">60</text>
    <text class="key-part part-0" x="55.00" y="298.14" font-size="18">left</text>
    <text class="key-index" x="374.31" y="617.67" font-size="26" transform="rotate(40 374.31 629.31)">61</text>
    <text class="key-part part-0" x="374.31" y="644.95" font-size="18" transform="rotate(40 374.31 629.31)">left</text>
    <text class="key-index" x="427.94" y="662.66" font-size="26" transform="rotate(40 427.94 674.30)">62</text>
    <text class="key-part part-0" x="427.94" y="689.94" font-size="18" transform="rotate(40 427.94 674.30)">left</text>
    <text class="key-index" x="472.93" y="609.04" font-size="26" transform="rotate(40 472.93 620.68)">63</text>
    <text class="key-part part-0" x="472.93" y="636.32" font-size="18" transform="rotate(40 472.93 620.68)">left</text>
    <text class="key-index" x="621.20" y="620.40" font-size="26" transform="rotate(-40 621.20 632.04)">64</text>
    <text class="key-part part-1" x="621.20" y="647.68" font-size="18" transform="rotate(-40 621.20 632.04)">right</text>
    <text class="key-index" x="666.20" y="674.03" font-size="26" transform="rotate(-40 666.20 685.67)">65</text>
    <text class="key-part part-1" x="666.20" y="701.31" font-size="18" transform="rotate(-40 666.20 685.67)">right</text>
    <text class="key-index" x="719.82" y="629.03" font-size="26" transform="rotate(-40 719.82 640.67)">66</text>
    <text class="key-part part-1" x="719.82" y="656.31" font-size="18" transform="rotate(-40 719.82 640.67)">right</text>
    <text class="key-index" x="1035.00" y="270.86" font-size="26">67</text>
    <text class="key-part part-1" x="1035.00" y="298.14" font-size="18">right</text>
  </g>
</svg>
